<?xml version="1.0" encoding="utf-8"?>
<!-- Generator: Adobe Illustrator 26.0.2, SVG Export Plug-In . SVG Version: 6.00 Build 0)  -->
<svg version="1.1" id="Layer_1" xmlns="http://www.w3.org/2000/svg" xmlns:xlink="http://www.w3.org/1999/xlink" x="0px" y="0px"
	 viewBox="0 0 888 300" style="enable-background:new 0 0 888 300;" xml:space="preserve">
<style type="text/css">
	.st0{fill:#8C715A;}
	.st1{fill:#CCCCCC;}
	.st2{fill:#FFFFFF;}
	.st3{fill:#6D5747;}
</style>
<g>
	<g>
		<g>
			<path class="st0" d="M465.49,205.43c0-2.38-1.77-3.89-4.06-3.89c-6.56,0-13.3,6.99-17.36,11.57c1.25-2.03,5.57-7.95,5.57-9.98
				c0-0.73-0.17-1.68-1.04-1.68c-2.29,0-5.1,0.6-6.56,2.46c-1.51,1.9-2.55,4.06-3.8,6.13c-3.5,5.84-6.98,11.69-10.41,17.63
				c-2.07,2.04-4.53,4.05-6.3,4.05c-1.08,0-1.38-1.29-1.38-2.37c0-0.48,0.04-0.91,0.13-1.21c1.42-7.77,8.64-19.56,9.28-20.25
				c0.39-0.39,0.6-1.17,0.6-1.81c0-1.55-1.47-2.25-3.28-2.25c-1.77,0-2.46,0.17-3.89,2.38c-0.47-1.42-2.33-2.72-5.66-2.72
				c-9.59,0-25.82,13.6-25.82,26.43c0,0.33,0.01,0.66,0.03,0.98c-0.8,0.11-1.76,0.19-2.94,0.19c-9.46,0-21.03-3.2-31.65-5.83
				c4.19-5.48,8.55-12.44,14.08-20.6c13.65-20.17,20.99-23.97,23.88-23.97c0.35,0,0.52,0.13,0.52,0.39c0,1.86-9.59,9.89-12.48,10.75
				c-0.04-0.3-0.22-0.47-0.47-0.47c-0.43,0-1.12,0.6-1.12,2.07c0,2.07,1.55,4.66,4.62,4.66c3.54,0,18.22-10.71,18.22-18.48
				c0-2.63-1.51-6.18-7-6.18c-11.53,0-22.33,11.23-32.9,26.6c-5.7,8.33-10.54,17.06-16.02,23.19c-4.23-0.91-8.12-1.51-11.4-1.51
				c-13.08,0-15.85,4.97-15.85,8.38c0,3.45,0.56,8.33,11.27,8.33c8.29,0,14.03-2.55,19.17-7.17c9.89,2.68,20.34,6.56,31.48,6.56
				c3.8,0,7.17-0.56,8.33-1.25c0.36-0.22,0.91-0.85,1.5-1.63c1.17,1.77,3.15,3.05,5.64,3.05c4.32,0,11.31-4.97,16.06-11.14
				c-0.56,1.25-0.86,2.68-0.86,4.1c0,3.63,1.94,7.21,6.43,7.21c2.04,0,4.19-0.89,6.16-2.14c0.93,0.37,1.98,0.71,2.39,0.71
				c0.99,0,2.07-1.08,2.63-1.86c2.85-3.84,5.87-7.6,9.11-11.14c2.16-2.38,13.86-14.68,16.11-14.86l0.09,0.09
				c-1.51,1.77-3.2,4.23-3.2,6.74c0,1.68,0.99,3.32,2.85,3.32c1.12,0,1.86-0.6,2.46-1.38C460.35,215.41,465.49,207.89,465.49,205.43
				z M333.34,231.26c-1.81,0-3.28-0.65-3.28-1.29s1.51-1.34,5.66-1.34c1.86,0,3.71,0.17,5.7,0.43
				C338.91,230.48,336.28,231.26,333.34,231.26z M413.97,218.35C410.69,222.4,400.84,231,399.2,231c-0.6,0-0.86-0.39-0.86-1.08
				c0-2.59,3.71-9.15,7.51-13.08c6.69-6.99,12.35-8.2,15.29-8.2C418.85,211.69,415.91,215.88,413.97,218.35z"/>
			<path class="st0" d="M528.81,198.52c-2.85,0-4.53,2.12-4.53,3.46c0,1.42,0.99,1.51,0.99,3.11c0,2.2-3.63,8.12-7.99,13.6
				c-3.58,4.49-12.22,12.39-13.78,12.39c-0.17,0-0.26-0.09-0.26-0.26c0-3.63,11.75-22.84,11.75-26c0-1.43-1.43-2.85-3.45-2.85
				c-3.89,0-11.23,8.59-12,9.46c-0.13,0.17-0.22,0.43-0.22,0.69c0,1.25,1.42,3.11,1.99,3.11c0.52,0,1.68-0.86,2.81-1.68
				c-1.32,2.15-3.33,5.87-4.99,9.65c-0.16,0.06-0.31,0.16-0.46,0.28c-0.69,0.61-6.78,8.25-10.23,8.25c-1.08,0-1.38-1.29-1.38-2.37
				c0-0.48,0.04-0.91,0.13-1.21c1.42-7.77,8.64-19.56,9.28-20.25c0.39-0.39,0.6-1.17,0.6-1.81c0-1.55-1.47-2.25-3.28-2.25
				c-1.77,0-2.46,0.17-3.89,2.38c-0.47-1.42-2.33-2.72-5.66-2.72c-9.59,0-25.82,13.6-25.82,26.43c0,0.73,0.04,1.42,0.17,2.16
				c0.43,3.07,3.02,5.92,6.74,5.92c4.32,0,11.31-4.97,16.06-11.14c-0.56,1.25-0.86,2.68-0.86,4.1c0,3.63,1.94,7.21,6.43,7.21
				c3.19,0,6.62-2.15,9.26-4.46c0.28,3.1,2.7,4.46,4.65,4.46c4.53,0,13.39-6.82,20.43-14.77c6.52-7.38,11.57-15.98,11.57-19.99
				C532.87,199.78,531.18,198.52,528.81,198.52z M480.87,218.35C477.59,222.4,467.74,231,466.1,231c-0.6,0-0.86-0.39-0.86-1.08
				c0-2.59,3.71-9.15,7.51-13.08c6.69-6.99,12.35-8.2,15.29-8.2C485.75,211.69,482.81,215.88,480.87,218.35z"/>
			<path class="st0" d="M596.4,176.33c0-2.81-2.59-4.49-5.23-4.49c-5.92,0-14.16,10.54-19.48,18.05
				c-5.99,8.48-12.71,22.88-14.32,34.36c-0.15-0.66-0.42-1.2-0.93-1.2c-0.35,0-0.73,0.26-0.99,0.43c-3.97,2.98-9.98,8.94-16.28,8.94
				c-2.29,0-5.74-0.35-5.74-3.37c0-1.94,7.34-6,9.11-7c1.34-0.73,2.81-0.82,4.06-1.86c0.56-0.47,1.51-1.21,1.51-1.94
				c0-0.69-1.12-2.46-1.86-2.85c-0.26-0.09-0.6-0.09-0.86-0.09c-2.2,0-4.15,1.42-6.48,1.42c-0.17,0-0.86,0-0.86-0.35
				c0-1.6,5.92-5.48,7.34-6.26c1.12-0.65,2.29-1.25,3.54-1.68c-0.09,0.35-0.17,0.69-0.17,1.12c0,1.25,0.17,1.94,1.55,1.94
				c3.84,0,7.56-3.32,7.56-7.17c0-1.86-2.85-2.63-4.36-2.63c-7.34,0-21.68,6.09-21.68,14.6c0,2.29,0.22,3.97,2.59,5.05
				c-4.06,1.51-8.25,4.23-8.25,9.02c0,6.35,6.74,7.95,11.87,7.95c7,0,13.34-4.15,17.49-7.51c0.49-0.39,1.1-0.95,1.48-1.5
				c0.09,5.42,2.76,9.02,8.41,9.02c5.35,0,11.7-3.2,15.2-7.17c1.04-1.17,2.03-2.16,2.03-4.1v-0.86c0-0.69,0-3.15-1.12-3.15
				c-1.86,0-7.82,8.9-13.21,8.9c-2.63,0-4.66-1.56-4.66-4.32c0-1.43,0.52-2.72,0.69-4.15C571.7,215.32,596.4,186.26,596.4,176.33z
				 M572.52,199.09c1.73-3.11,13.99-20.73,16.28-20.73c0.35,0,0.43,0.3,0.43,0.65c0,4.66-18.91,29.71-23.1,34.68
				C567.68,208.97,570.1,203.4,572.52,199.09z"/>
			<path class="st0" d="M643.86,211.48c-0.22,0-0.35,0.09-0.39,0.35c-0.17,1.56-18.31,18.18-29.19,18.18c-4.15,0-5.83-2.63-5.83-6
				c0-9.07,7.77-21.16,16.63-29.28c8.25-7.56,19.13-13.08,24.4-13.08c1.04,0,1.51,0.43,1.51,1.12c0,3.41-10.8,13.47-14.34,13.47
				c-0.69,0-1.3-0.13-1.3-0.52c0-0.13,0.04-0.26,0.17-0.43c-1.08,0-1.6,2.63-1.6,3.24c0,1.6,2.12,3.97,5.14,3.97
				c5.74,0,20.6-12.91,20.6-20.94c0-4.58-5.66-6.82-8.77-6.82c-21.94,0-49.96,27.16-49.96,48.58c0,7.86,6.61,13.52,12.18,13.52
				c17.45,0,30.4-14.68,31.05-17.96c0.43-2.38,0.73-4.28,0.73-5.7C644.9,212.13,644.42,211.48,643.86,211.48z"/>
			<path class="st0" d="M714.69,218.35c0.65-0.13,0.91-0.69,0.91-1.3c0-0.86-0.48-1.86-0.73-1.9c-1.77-0.3-3.45-1.29-4.88-1.29
				c-0.22,0-0.43,0.04-0.6,0.09c-0.99,0.26-5.05,0.95-9.46,1.77c-0.39-0.09-0.73-0.3-1.08-0.39c8.94-14.68,25.05-39.43,25.82-41.11
				c0.17-0.39,0.26-0.73,0.26-0.99c0-0.65-0.47-0.95-1.17-0.95c-0.86-0.04-5.05,0.82-7.13,3.28c-0.91,1.08-12.83,19.6-24.87,39.77
				c-2.63,0.47-4.97,1.38-5.57,1.51c-0.78,0.22-2.03,1.51-2.72,2.12c-0.73,0.65-1.08,1.51-1.77,2.07c-0.26,0.13-0.35,0.35-0.35,0.52
				c0,0.39,0.35,0.82,0.35,1.21c0,0.42,0.16,1.84,1.46,2.35c-2.18,2.42-6.2,6.63-8.77,6.63c-1.08,0-1.38-1.29-1.38-2.37
				c0-0.48,0.04-0.91,0.13-1.21c1.42-7.77,8.64-19.56,9.28-20.25c0.39-0.39,0.6-1.17,0.6-1.81c0-1.55-1.47-2.25-3.28-2.25
				c-1.77,0-2.46,0.17-3.89,2.38c-0.47-1.42-2.33-2.72-5.66-2.72c-9.59,0-25.82,13.6-25.82,26.43c0,0.73,0.04,1.42,0.17,2.16
				c0.43,3.07,3.02,5.92,6.74,5.92c4.32,0,11.31-4.97,16.06-11.14c-0.56,1.25-0.86,2.68-0.86,4.1c0,3.63,1.94,7.21,6.43,7.21
				c2.21,0,4.54-1.03,6.64-2.44c-5.68,9.71-9.65,17.55-9.65,22.95c0,3.45,3.2,4.49,4.97,4.49c8.2,0,34.11-25.43,34.11-37.48
				c0-1.77-0.86-3.71-2.29-5.4C710.98,219.25,714.22,218.43,714.69,218.35z M666.84,218.35c-3.28,4.06-13.13,12.65-14.77,12.65
				c-0.6,0-0.86-0.39-0.86-1.08c0-2.59,3.71-9.15,7.51-13.08c6.69-6.99,12.35-8.2,15.29-8.2
				C671.72,211.69,668.78,215.88,666.84,218.35z M677.6,255.65c-0.3,0-0.47-0.22-0.47-0.65c0-3.5,10.54-20.81,17.01-31.78l4.79-1.08
				c1.51,1.17,2.55,2.59,2.55,4.15C701.48,237.17,680.45,255.65,677.6,255.65z"/>
			<path class="st0" d="M742.94,223.05c-0.35,0-0.73,0.26-0.99,0.43c-3.97,2.98-9.98,8.94-16.28,8.94c-2.29,0-5.74-0.35-5.74-3.37
				c0-1.94,7.34-6,9.11-7c1.34-0.73,2.81-0.82,4.06-1.86c0.56-0.47,1.51-1.21,1.51-1.94c0-0.69-1.12-2.46-1.86-2.85
				c-0.26-0.09-0.6-0.09-0.86-0.09c-2.2,0-4.15,1.42-6.48,1.42c-0.17,0-0.86,0-0.86-0.35c0-1.6,5.92-5.48,7.34-6.26
				c1.12-0.65,2.29-1.25,3.54-1.68c-0.09,0.35-0.17,0.69-0.17,1.12c0,1.25,0.17,1.94,1.55,1.94c3.84,0,7.56-3.32,7.56-7.17
				c0-1.86-2.85-2.63-4.36-2.63c-7.34,0-21.68,6.09-21.68,14.6c0,2.29,0.22,3.97,2.59,5.05c-4.06,1.51-8.25,4.23-8.25,9.02
				c0,6.35,6.74,7.95,11.88,7.95c7,0,13.34-4.15,17.49-7.51c0.65-0.52,1.51-1.34,1.77-2.03c0.26-0.73,0.26-1.6,0.26-2.33
				C744.06,225.69,744.06,223.05,742.94,223.05z"/>
		</g>
		<g>
			<path class="st0" d="M321.06,260.13l6.32-12.02c0.05-0.11,0.11-0.18,0.22-0.18h0.18c0.11,0,0.15,0.07,0.16,0.18l2.04,12.02
				c0.02,0.11-0.05,0.18-0.16,0.18h-0.15c-0.09,0-0.18-0.04-0.2-0.18l-0.56-3.41h-5.5l-1.78,3.41c-0.07,0.15-0.16,0.18-0.25,0.18
				h-0.22C321.04,260.31,321,260.24,321.06,260.13z M328.82,256.25l-1.24-7.41h-0.04l-3.88,7.41H328.82z"/>
			<path class="st0" d="M334.57,248.11c0.02-0.11,0.09-0.18,0.2-0.18h0.15c0.11,0,0.18,0.04,0.24,0.18l4.66,11.13h0.04l1.97-11.13
				c0.02-0.11,0.09-0.18,0.2-0.18h0.16c0.11,0,0.16,0.07,0.15,0.18l-2.11,12.02c-0.02,0.11-0.09,0.18-0.2,0.18h-0.13
				c-0.11,0-0.2-0.04-0.26-0.18l-4.66-11.18h-0.04l-1.97,11.18c-0.02,0.11-0.09,0.18-0.2,0.18h-0.16c-0.09,0-0.16-0.07-0.15-0.18
				L334.57,248.11z"/>
			<path class="st0" d="M350.28,248.11c0.02-0.11,0.09-0.18,0.2-0.18h6.54c0.11,0,0.16,0.07,0.15,0.18l-0.02,0.11
				c-0.02,0.13-0.09,0.18-0.22,0.18h-6.08c-0.07,0-0.11,0.04-0.13,0.11l-0.89,5.14c-0.02,0.09,0.04,0.13,0.11,0.13h5.23
				c0.11,0,0.16,0.07,0.15,0.18l-0.02,0.11c-0.02,0.13-0.09,0.18-0.22,0.18h-5.24c-0.07,0-0.11,0.04-0.13,0.11l-0.95,5.37
				c-0.02,0.07,0.02,0.11,0.09,0.11h6.08c0.11,0,0.16,0.07,0.15,0.18l-0.02,0.11c-0.02,0.13-0.09,0.18-0.22,0.18h-6.52
				c-0.11,0-0.16-0.07-0.15-0.18L350.28,248.11z"/>
			<path class="st0" d="M359.93,248.11c0.02-0.11,0.09-0.18,0.2-0.18h0.16c0.11,0,0.16,0.07,0.15,0.18l-2.04,11.62
				c-0.02,0.07,0.02,0.11,0.07,0.11h6.08c0.09,0,0.16,0.07,0.15,0.18l-0.02,0.11c-0.02,0.11-0.09,0.18-0.2,0.18h-6.52
				c-0.09,0-0.16-0.07-0.15-0.18L359.93,248.11z"/>
			<path class="st0" d="M369.03,248.11c0.02-0.11,0.09-0.18,0.2-0.18h6.54c0.11,0,0.16,0.07,0.15,0.18l-0.02,0.11
				c-0.02,0.13-0.09,0.18-0.22,0.18h-6.08c-0.07,0-0.11,0.04-0.13,0.11l-0.89,5.14c-0.02,0.09,0.04,0.13,0.11,0.13h5.23
				c0.11,0,0.16,0.07,0.15,0.18l-0.02,0.11c-0.02,0.13-0.09,0.18-0.22,0.18h-5.24c-0.07,0-0.11,0.04-0.13,0.11l-0.95,5.37
				c-0.02,0.07,0.02,0.11,0.09,0.11h6.08c0.11,0,0.16,0.07,0.15,0.18l-0.02,0.11c-0.02,0.13-0.09,0.18-0.22,0.18h-6.52
				c-0.11,0-0.16-0.07-0.15-0.18L369.03,248.11z"/>
			<path class="st0" d="M378.02,250.44c0.89-1.84,2.2-2.7,4.17-2.7c1.33,0,2.68,0.62,3.19,2.15c0.04,0.11,0,0.16-0.09,0.2
				l-0.15,0.06c-0.09,0.04-0.18,0-0.2-0.07c-0.47-1.31-1.55-1.86-2.84-1.86c-1.64,0-2.84,0.8-3.59,2.33
				c-0.73,1.49-1.31,4.94-1.31,6.43c0,1.95,0.97,3.04,2.82,3.04c1.58,0,2.82-0.73,3.62-2.37c0.33-0.66,0.64-1.6,0.82-2.79
				c0.02-0.07-0.02-0.11-0.09-0.11h-3.06c-0.11,0-0.15-0.07-0.13-0.18l0.02-0.13c0.02-0.11,0.07-0.16,0.18-0.16h3.5
				c0.09,0,0.15,0.07,0.13,0.18l-0.09,0.6c-0.16,1-0.49,2.09-0.8,2.73c-0.91,1.88-2.22,2.69-4.17,2.69c-2.06,0-3.26-1.26-3.26-3.42
				C376.69,255.5,377.3,251.93,378.02,250.44z"/>
			<path class="st0" d="M385.81,260.13l6.32-12.02c0.05-0.11,0.11-0.18,0.22-0.18h0.18c0.11,0,0.15,0.07,0.16,0.18l2.04,12.02
				c0.02,0.11-0.05,0.18-0.16,0.18h-0.15c-0.09,0-0.18-0.04-0.2-0.18l-0.56-3.41h-5.5l-1.78,3.41c-0.07,0.15-0.16,0.18-0.25,0.18
				h-0.22C385.8,260.31,385.76,260.24,385.81,260.13z M393.57,256.25l-1.24-7.41h-0.04l-3.88,7.41H393.57z"/>
			<path class="st0" d="M399.32,248.11c0.02-0.11,0.09-0.18,0.2-0.18h0.15c0.11,0,0.18,0.04,0.24,0.18l4.66,11.13h0.04l1.97-11.13
				c0.02-0.11,0.09-0.18,0.2-0.18h0.16c0.11,0,0.16,0.07,0.15,0.18l-2.11,12.02c-0.02,0.11-0.09,0.18-0.2,0.18h-0.13
				c-0.11,0-0.2-0.04-0.26-0.18l-4.66-11.18h-0.04l-1.97,11.18c-0.02,0.11-0.09,0.18-0.2,0.18h-0.16c-0.09,0-0.16-0.07-0.15-0.18
				L399.32,248.11z"/>
			<path class="st0" d="M411.12,260.31c-0.11,0-0.16-0.07-0.15-0.18l2.04-11.62c0.02-0.07,0-0.11-0.07-0.11h-3.57
				c-0.09,0-0.15-0.07-0.13-0.18l0.02-0.11c0.02-0.11,0.09-0.18,0.2-0.18h7.85c0.09,0,0.15,0.07,0.13,0.18l-0.02,0.11
				c-0.02,0.11-0.09,0.18-0.2,0.18h-3.57c-0.07,0-0.11,0.04-0.13,0.11l-2.04,11.62c-0.02,0.11-0.09,0.18-0.2,0.18H411.12z"/>
			<path class="st0" d="M423.79,248.11c0.02-0.11,0.09-0.18,0.2-0.18h6.54c0.11,0,0.16,0.07,0.15,0.18l-0.02,0.11
				c-0.02,0.13-0.09,0.18-0.22,0.18h-6.08c-0.07,0-0.11,0.04-0.13,0.11l-0.91,5.26c-0.02,0.09,0.04,0.13,0.11,0.13h5.23
				c0.11,0,0.16,0.07,0.15,0.18l-0.02,0.11c-0.02,0.13-0.09,0.18-0.22,0.18h-5.24c-0.07,0-0.11,0.04-0.13,0.11l-1,5.65
				c-0.02,0.11-0.09,0.18-0.2,0.18h-0.16c-0.11,0-0.16-0.07-0.15-0.18L423.79,248.11z"/>
			<path class="st0" d="M431.35,257.07c0-1.57,0.6-5.13,1.33-6.63c0.89-1.84,2.2-2.7,4.15-2.7c2.08,0,3.26,1.26,3.26,3.42
				c0,1.57-0.6,5.14-1.33,6.63c-0.89,1.84-2.2,2.69-4.15,2.69C432.53,260.49,431.35,259.24,431.35,257.07z M438.27,257.69
				c0.73-1.49,1.31-4.94,1.31-6.43c0-1.95-0.96-3.04-2.82-3.04c-1.64,0-2.84,0.8-3.59,2.33c-0.73,1.49-1.31,4.94-1.31,6.43
				c0,1.95,0.97,3.04,2.82,3.04C436.32,260.02,437.52,259.22,438.27,257.69z"/>
			<path class="st0" d="M448.97,260.31c-0.11,0-0.16-0.04-0.2-0.16l-1.64-5.68c-0.16,0.02-0.31,0.02-0.47,0.02h-3.26
				c-0.07,0-0.11,0.04-0.13,0.11l-0.98,5.54c-0.02,0.11-0.09,0.18-0.2,0.18h-0.16c-0.11,0-0.16-0.07-0.15-0.18l2.11-12.02
				c0.02-0.11,0.09-0.18,0.2-0.18h3.73c1.95,0,3,0.95,3,2.64c0,2.13-1.18,3.51-3.22,3.84l1.69,5.72c0.04,0.11,0,0.18-0.11,0.18
				H448.97z M450.34,250.6c0-1.49-0.87-2.2-2.6-2.2h-3.28c-0.07,0-0.11,0.04-0.13,0.11l-0.95,5.39c-0.02,0.07,0.02,0.11,0.09,0.11
				h3.28C449.1,254.01,450.34,252.64,450.34,250.6z"/>
			<path class="st0" d="M453.08,256.09l1.4-7.98c0.02-0.11,0.09-0.18,0.2-0.18h0.16c0.11,0,0.16,0.07,0.15,0.18l-1.4,7.99
				c-0.46,2.62,0.51,3.92,2.8,3.92c2.18,0,3.4-1.06,3.91-3.92l1.4-7.99c0.02-0.11,0.09-0.18,0.2-0.18h0.16
				c0.11,0,0.16,0.07,0.15,0.18l-1.4,7.98c-0.55,3.13-1.91,4.41-4.46,4.41C453.85,260.49,452.56,259.07,453.08,256.09z"/>
			<path class="st0" d="M465.66,248.11c0.02-0.11,0.09-0.18,0.2-0.18h0.16c0.11,0,0.16,0.05,0.2,0.18l2.51,9.62h0.04l5.86-9.62
				c0.07-0.13,0.16-0.18,0.25-0.18h0.22c0.11,0,0.16,0.07,0.15,0.18l-2.11,12.02c-0.02,0.11-0.09,0.18-0.2,0.18h-0.16
				c-0.11,0-0.16-0.07-0.15-0.18l1.91-10.85h-0.04l-5.5,8.96c-0.09,0.15-0.15,0.18-0.31,0.18h-0.07c-0.16,0-0.24-0.05-0.27-0.2
				l-2.35-9h-0.04l-1.91,10.91c-0.02,0.11-0.09,0.18-0.2,0.18h-0.16c-0.09,0-0.16-0.07-0.15-0.18L465.66,248.11z"/>
			<path class="st0" d="M483.21,248.11c0.02-0.11,0.09-0.18,0.2-0.18h6.54c0.11,0,0.16,0.07,0.15,0.18l-0.02,0.11
				c-0.02,0.13-0.09,0.18-0.22,0.18h-6.08c-0.07,0-0.11,0.04-0.13,0.11l-0.91,5.26c-0.02,0.09,0.04,0.13,0.11,0.13h5.23
				c0.11,0,0.16,0.07,0.15,0.18l-0.02,0.11c-0.02,0.13-0.09,0.18-0.22,0.18h-5.24c-0.07,0-0.11,0.04-0.13,0.11l-1,5.65
				c-0.02,0.11-0.09,0.18-0.2,0.18h-0.16c-0.11,0-0.16-0.07-0.15-0.18L483.21,248.11z"/>
			<path class="st0" d="M490.77,257.07c0-1.57,0.6-5.13,1.33-6.63c0.89-1.84,2.2-2.7,4.15-2.7c2.08,0,3.26,1.26,3.26,3.42
				c0,1.57-0.6,5.14-1.33,6.63c-0.89,1.84-2.2,2.69-4.15,2.69C491.95,260.49,490.77,259.24,490.77,257.07z M497.69,257.69
				c0.73-1.49,1.31-4.94,1.31-6.43c0-1.95-0.96-3.04-2.82-3.04c-1.64,0-2.84,0.8-3.59,2.33c-0.73,1.49-1.31,4.94-1.31,6.43
				c0,1.95,0.97,3.04,2.82,3.04C495.74,260.02,496.94,259.22,497.69,257.69z"/>
			<path class="st0" d="M508.39,260.31c-0.11,0-0.16-0.04-0.2-0.16l-1.64-5.68c-0.16,0.02-0.31,0.02-0.47,0.02h-3.26
				c-0.07,0-0.11,0.04-0.13,0.11l-0.98,5.54c-0.02,0.11-0.09,0.18-0.2,0.18h-0.16c-0.11,0-0.16-0.07-0.15-0.18l2.11-12.02
				c0.02-0.11,0.09-0.18,0.2-0.18h3.73c1.95,0,3,0.95,3,2.64c0,2.13-1.18,3.51-3.22,3.84l1.69,5.72c0.04,0.11,0,0.18-0.11,0.18
				H508.39z M509.76,250.6c0-1.49-0.87-2.2-2.6-2.2h-3.28c-0.07,0-0.11,0.04-0.13,0.11l-0.95,5.39c-0.02,0.07,0.02,0.11,0.09,0.11
				h3.28C508.52,254.01,509.76,252.64,509.76,250.6z"/>
			<path class="st0" d="M518.64,260.31c-0.11,0-0.16-0.07-0.15-0.18l0.86-4.92l-2.33-7.07c-0.04-0.13,0.02-0.22,0.15-0.22h0.11
				c0.15,0,0.2,0.04,0.25,0.18l2.15,6.48h0.04l4.44-6.48c0.09-0.15,0.16-0.18,0.31-0.18h0.15c0.13,0,0.16,0.11,0.09,0.22l-4.84,7.08
				l-0.86,4.9c-0.02,0.11-0.09,0.18-0.2,0.18H518.64z"/>
			<path class="st0" d="M524.78,257.07c0-1.57,0.6-5.13,1.33-6.63c0.89-1.84,2.2-2.7,4.15-2.7c2.08,0,3.26,1.26,3.26,3.42
				c0,1.57-0.6,5.14-1.33,6.63c-0.89,1.84-2.2,2.69-4.15,2.69C525.96,260.49,524.78,259.24,524.78,257.07z M531.7,257.69
				c0.73-1.49,1.31-4.94,1.31-6.43c0-1.95-0.96-3.04-2.82-3.04c-1.64,0-2.84,0.8-3.59,2.33c-0.73,1.49-1.31,4.94-1.31,6.43
				c0,1.95,0.97,3.04,2.82,3.04C529.75,260.02,530.95,259.22,531.7,257.69z"/>
			<path class="st0" d="M535.79,256.09l1.4-7.98c0.02-0.11,0.09-0.18,0.2-0.18h0.16c0.11,0,0.16,0.07,0.15,0.18l-1.4,7.99
				c-0.46,2.62,0.51,3.92,2.8,3.92c2.18,0,3.4-1.06,3.91-3.92l1.4-7.99c0.02-0.11,0.09-0.18,0.2-0.18h0.16
				c0.11,0,0.16,0.07,0.15,0.18l-1.4,7.98c-0.55,3.13-1.91,4.41-4.46,4.41C536.55,260.49,535.26,259.07,535.79,256.09z"/>
			<path class="st0" d="M553.45,260.31c-0.11,0-0.16-0.04-0.2-0.16l-1.64-5.68c-0.16,0.02-0.31,0.02-0.47,0.02h-3.26
				c-0.07,0-0.11,0.04-0.13,0.11l-0.98,5.54c-0.02,0.11-0.09,0.18-0.2,0.18h-0.16c-0.11,0-0.16-0.07-0.15-0.18l2.11-12.02
				c0.02-0.11,0.09-0.18,0.2-0.18h3.73c1.95,0,3,0.95,3,2.64c0,2.13-1.18,3.51-3.22,3.84l1.69,5.72c0.04,0.11,0,0.18-0.11,0.18
				H553.45z M554.82,250.6c0-1.49-0.87-2.2-2.6-2.2h-3.28c-0.07,0-0.11,0.04-0.13,0.11l-0.95,5.39c-0.02,0.07,0.02,0.11,0.09,0.11
				h3.28C553.58,254.01,554.82,252.64,554.82,250.6z"/>
			<path class="st0" d="M560.28,260.13l6.32-12.02c0.05-0.11,0.11-0.18,0.22-0.18H567c0.11,0,0.15,0.07,0.16,0.18l2.04,12.02
				c0.02,0.11-0.05,0.18-0.16,0.18h-0.15c-0.09,0-0.18-0.04-0.2-0.18l-0.56-3.41h-5.5l-1.78,3.41c-0.07,0.15-0.16,0.18-0.25,0.18
				h-0.22C560.26,260.31,560.22,260.24,560.28,260.13z M568.03,256.25l-1.24-7.41h-0.04l-3.88,7.41H568.03z"/>
			<path class="st0" d="M571.82,260.31c-0.11,0-0.16-0.07-0.15-0.18l2.11-12.02c0.02-0.11,0.09-0.18,0.2-0.18h3.75
				c1.97,0,3.02,0.95,3.02,2.57c0,2.59-1.73,4.1-4.19,4.1h-3.31c-0.07,0-0.11,0.04-0.13,0.11l-0.95,5.43
				c-0.02,0.11-0.09,0.18-0.2,0.18H571.82z M580.27,250.53c0-1.38-0.87-2.13-2.6-2.13h-3.31c-0.07,0-0.11,0.04-0.13,0.11l-0.96,5.5
				c-0.02,0.07,0.02,0.11,0.09,0.11h3.24C578.83,254.1,580.27,252.83,580.27,250.53z"/>
			<path class="st0" d="M581.92,260.31c-0.11,0-0.16-0.07-0.15-0.18l2.11-12.02c0.02-0.11,0.09-0.18,0.2-0.18h3.75
				c1.97,0,3.02,0.95,3.02,2.57c0,2.59-1.73,4.1-4.19,4.1h-3.31c-0.07,0-0.11,0.04-0.13,0.11l-0.95,5.43
				c-0.02,0.11-0.09,0.18-0.2,0.18H581.92z M590.37,250.53c0-1.38-0.87-2.13-2.6-2.13h-3.31c-0.07,0-0.11,0.04-0.13,0.11l-0.96,5.5
				c-0.02,0.07,0.02,0.11,0.09,0.11h3.24C588.93,254.1,590.37,252.83,590.37,250.53z"/>
			<path class="st0" d="M593.99,248.11c0.02-0.11,0.09-0.18,0.2-0.18h0.16c0.11,0,0.16,0.07,0.15,0.18l-2.04,11.62
				c-0.02,0.07,0.02,0.11,0.07,0.11h6.08c0.09,0,0.16,0.07,0.15,0.18l-0.02,0.11c-0.02,0.11-0.09,0.18-0.2,0.18h-6.52
				c-0.09,0-0.16-0.07-0.15-0.18L593.99,248.11z"/>
			<path class="st0" d="M603.1,248.11c0.02-0.11,0.09-0.18,0.2-0.18h0.16c0.11,0,0.16,0.07,0.15,0.18l-2.11,12.02
				c-0.02,0.11-0.09,0.18-0.2,0.18h-0.16c-0.11,0-0.16-0.07-0.15-0.18L603.1,248.11z"/>
			<path class="st0" d="M606.52,250.44c0.91-1.88,2.13-2.7,3.95-2.7c1.35,0,2.55,0.69,3.06,2.24c0.04,0.11,0,0.16-0.09,0.2
				l-0.15,0.05c-0.09,0.04-0.18,0-0.2-0.07c-0.47-1.33-1.4-1.95-2.66-1.95c-1.53,0-2.64,0.71-3.42,2.33
				c-0.73,1.49-1.31,4.94-1.31,6.43c0,1.93,0.95,3.04,2.8,3.04c1.44,0,2.42-0.66,3.28-1.91c0.05-0.07,0.13-0.09,0.2-0.05l0.16,0.09
				c0.09,0.05,0.07,0.15,0.02,0.24c-0.95,1.49-2.22,2.11-3.73,2.11c-2.04,0-3.24-1.26-3.24-3.42
				C605.19,255.5,605.79,251.93,606.52,250.44z"/>
			<path class="st0" d="M613.67,260.13l6.32-12.02c0.05-0.11,0.11-0.18,0.22-0.18h0.18c0.11,0,0.15,0.07,0.16,0.18l2.04,12.02
				c0.02,0.11-0.05,0.18-0.16,0.18h-0.15c-0.09,0-0.18-0.04-0.2-0.18l-0.56-3.41h-5.5l-1.78,3.41c-0.07,0.15-0.16,0.18-0.25,0.18
				h-0.22C613.65,260.31,613.62,260.24,613.67,260.13z M621.43,256.25l-1.24-7.41h-0.04l-3.88,7.41H621.43z"/>
			<path class="st0" d="M626.36,260.31c-0.11,0-0.16-0.07-0.15-0.18l2.04-11.62c0.02-0.07,0-0.11-0.07-0.11h-3.57
				c-0.09,0-0.15-0.07-0.13-0.18l0.02-0.11c0.02-0.11,0.09-0.18,0.2-0.18h7.85c0.09,0,0.15,0.07,0.13,0.18l-0.02,0.11
				c-0.02,0.11-0.09,0.18-0.2,0.18h-3.57c-0.07,0-0.11,0.04-0.13,0.11l-2.04,11.62c-0.02,0.11-0.09,0.18-0.2,0.18H626.36z"/>
			<path class="st0" d="M634.85,248.11c0.02-0.11,0.09-0.18,0.2-0.18h0.16c0.11,0,0.16,0.07,0.15,0.18l-2.11,12.02
				c-0.02,0.11-0.09,0.18-0.2,0.18h-0.16c-0.11,0-0.16-0.07-0.15-0.18L634.85,248.11z"/>
			<path class="st0" d="M636.96,257.07c0-1.57,0.6-5.13,1.33-6.63c0.89-1.84,2.2-2.7,4.15-2.7c2.08,0,3.26,1.26,3.26,3.42
				c0,1.57-0.6,5.14-1.33,6.63c-0.89,1.84-2.2,2.69-4.15,2.69C638.14,260.49,636.96,259.24,636.96,257.07z M643.88,257.69
				c0.73-1.49,1.31-4.94,1.31-6.43c0-1.95-0.96-3.04-2.82-3.04c-1.64,0-2.84,0.8-3.59,2.33c-0.73,1.49-1.31,4.94-1.31,6.43
				c0,1.95,0.97,3.04,2.82,3.04C641.93,260.02,643.13,259.22,643.88,257.69z"/>
			<path class="st0" d="M649.5,248.11c0.02-0.11,0.09-0.18,0.2-0.18h0.15c0.11,0,0.18,0.04,0.24,0.18l4.66,11.13h0.04l1.97-11.13
				c0.02-0.11,0.09-0.18,0.2-0.18h0.16c0.11,0,0.16,0.07,0.15,0.18l-2.11,12.02c-0.02,0.11-0.09,0.18-0.2,0.18h-0.13
				c-0.11,0-0.2-0.04-0.26-0.18l-4.66-11.18h-0.04l-1.97,11.18c-0.02,0.11-0.09,0.18-0.2,0.18h-0.16c-0.09,0-0.16-0.07-0.15-0.18
				L649.5,248.11z"/>
		</g>
	</g>
	<g>
		<path class="st1" d="M212.87,136.01c0,0-0.7,12.8,2.32,17.6c3.02,4.8,6.9,4.8,7.12,2.96c0.22-1.85-0.86-12.93,9.06-17.73
			c9.93-4.8,23.31-4.7,25.41-24.18c2.43-22.55,2.88-35.98-5.21-51.68c-8.09-15.7-30.55-26.45-56.1-25.25
			c-18.34,0.86-33.44,15.58-31.72,27.4c1.73,11.82,4.1,16.22,1.08,21.58c-3.02,5.36-4.1,22.48,7.55,30.42
			S214.38,121.79,212.87,136.01z"/>
		<path class="st2" d="M190.96,75.61c0,0,4.29,1.8,5.46,5.36c1.17,3.56,1,7.33-3.64,6.94c-4.64-0.39-5.17-4.24-4.4-7.76
			C189.14,76.63,189.28,74.68,190.96,75.61z"/>
		<path class="st2" d="M230.66,75.61c0,0,4.29,1.8,5.46,5.36c1.17,3.56,1,7.33-3.64,6.94c-4.64-0.39-5.17-4.24-4.4-7.76
			C228.84,76.63,228.98,74.68,230.66,75.61z"/>
		<path class="st2" d="M209.02,76.13c0,0-1.76,2.86-1.85,5.18c-0.09,2.33,1.67,6.17,3.08,6.87c1.41,0.7,4.67-1.96,5.99-4.88
			S211.58,73.01,209.02,76.13z"/>
		<path class="st2" d="M203.46,45.39c10.68-0.01,21.31,3.44,30.22,9.33c9.26,5.88,14.78,16.57,16.42,27.11
			c1.22,7.04,1.2,14.26-0.14,21.18c0.13-7.03-0.5-14.01-2.09-20.72c-1.58-6.6-4.13-13.12-8.39-18.43
			C230.73,53.44,216.67,47.8,203.46,45.39L203.46,45.39z"/>
		<path class="st1" d="M189.25,128.66c5.87-0.79,13.15-0.64,17.35,4.3c1.38,1.8,1.57,4.14,1.79,6.26c0.33,3.96,0.36,7.78,0.9,11.54
			c0.54,3.74,1.52,7.43,3.72,10.73c-6.34-5.23-6.89-14.5-7.52-22c-0.19-1.7-0.18-3.5-1.15-4.9c-0.83-1.32-2.36-2.28-4-3.06
			C196.98,130.02,193.13,129.27,189.25,128.66L189.25,128.66z"/>
		<path class="st1" d="M249.15,52.18c9.73,7.28,14.5,20.04,14.28,31.95c-0.06,1.72-0.27,3.43-0.52,5.11c-0.39-1.69-0.57-3.36-0.91-5
			C259.94,72.77,255.84,61.8,249.15,52.18L249.15,52.18z"/>
		<path class="st1" d="M164.08,44.81c-4.12,7.38-5.65,15.73-5.11,24.08c0.05,1.95,0.35,3.97,0.41,5.94
			c-0.64-1.18-1.22-2.42-1.71-3.69C154.48,62.25,156.27,50.74,164.08,44.81L164.08,44.81z"/>
	</g>
	<g>
		<g>
			<path class="st0" d="M176.09,171.76"/>
			<path class="st0" d="M311.72,190.15c-5.38-10.46-16.46-11.13-24.54-9.41c-0.03-0.62-0.05-1.2-0.09-1.72
				c-0.13-2.28-1.84-4.17-4.1-4.52c-28.16-4.44-67.17-3.46-67.17-3.46s-18.77-0.47-39.67,0.72c-0.02,0.17-3.98,34.57,10.56,55.23
				c5.74,8.16,12.94,15.02,22.05,20.36c5.14,3.01,10.88,5.53,17.33,7.52c15.54-0.36,24.71-1.72,31.56-5.21
				c4.92-2.52,8.65-6.14,12.7-11.28c0.48,0.02,0.96,0.04,1.44,0.04c13.81,0,26.59-6.84,34.8-18.84
				C313.62,209.3,315.63,197.75,311.72,190.15z M298.55,214.06c-2.71,3.95-9.48,11.98-20.87,14.08c7.04-11.44,9.1-26.26,9.52-37.33
				c3.82-1.15,12.43-2.86,15.85,3.8C304.92,198.26,303.98,206.12,298.55,214.06z"/>
			<path class="st0" d="M176.09,171.76c0.02,0,0.05,0,0.07,0c0,0,0,0,0,0C176.13,171.75,176.11,171.75,176.09,171.76z"/>
		</g>
		<path class="st3" d="M257.65,249.65c-6.84,3.5-16.01,4.85-31.56,5.21c-6.45-1.99-12.19-4.51-17.33-7.52
			c-9.12-5.34-16.32-12.2-22.05-20.36c-14.54-20.67-10.58-55.07-10.56-55.23c-2.3,0.13-4.63,0.28-6.97,0.46c-0.01,0-0.02,0-0.03,0
			c-1.15,0.09-2.3,0.18-3.45,0.28c-0.02,0-0.04,0-0.06,0.01c-1.15,0.1-2.3,0.2-3.44,0.31c-0.02,0-0.05,0-0.07,0.01
			c-1.11,0.11-2.21,0.22-3.31,0.34c-0.06,0.01-0.13,0.01-0.19,0.02c-1.11,0.12-2.22,0.25-3.32,0.39c-0.02,0-0.04,0.01-0.06,0.01
			c-1.07,0.13-2.13,0.27-3.18,0.42c-0.08,0.01-0.17,0.02-0.25,0.03c-1.07,0.15-2.12,0.31-3.16,0.47c-2.26,0.36-3.97,2.24-4.1,4.52
			c-0.1,1.8-0.2,4.15-0.2,6.89c0,0.77,0.01,1.56,0.02,2.39c0.06,3.29,0.26,7.02,0.7,10.95c0.33,2.95,0.79,6.01,1.44,9.1
			c0.14,0.68,0.29,1.36,0.45,2.04c0.14,0.61,0.29,1.21,0.45,1.82c0.5,1.92,1.08,3.83,1.74,5.71c0.57,1.6,1.19,3.18,1.89,4.72
			c0.35,0.78,0.73,1.55,1.12,2.31c0.2,0.39,0.41,0.78,0.62,1.16c0.8,1.47,1.68,2.9,2.63,4.26c1.82,2.59,3.49,4.92,5.09,7
			c1.2,1.57,2.37,3,3.53,4.31c0.39,0.44,0.78,0.86,1.17,1.27c0.78,0.82,1.57,1.59,2.38,2.3c1.97,1.75,4.05,3.19,6.39,4.39
			c-11.28,1.53-18.3,3.66-18.3,6.03c0,4.63,26.92,8.39,60.14,8.39s60.14-3.76,60.14-8.39C275.96,253.31,268.94,251.17,257.65,249.65
			z"/>
		<path class="st2" d="M168.97,229.72c-4.47-2.78-5.97-8.15-7.12-12.96c-2.78-14.37-1.92-29.39-0.48-43.88
			c-3.2,0.32-6.36,0.68-9.41,1.11c0.23,4.24,0.59,8.38,1.04,12.57C154.41,197.92,157.49,224.78,168.97,229.72z"/>
	</g>
</g>
</svg>
